Coordinates
version=1
nRows=25
nColumns=23
inDegrees=yes

Units are S.I. units (second, meters, Newtons, ...)
If the header above contains a line with 'inDegrees', this indicates whether rotational values are in degrees (yes) or radians (no).

endheader
time	pelvis_tilt	pelvis_list	pelvis_rotation	pelvis_tx	pelvis_ty	pelvis_tz	hip_flexion_r	hip_adduction_r	hip_rotation_r	knee_angle_r	knee_angle_r_beta	ankle_angle_r	subtalar_angle_r	mtp_angle_r	hip_flexion_l	hip_adduction_l	hip_rotation_l	knee_angle_l	knee_angle_l_beta	ankle_angle_l	subtalar_angle_l	mtp_angle_l
      7.50000000	     -8.53685247	      5.52951760	      7.17558407	      2.33203838	      0.90740066	      0.97207131	      9.66396117	     -5.17816663	     -4.56546046	     97.92484012	      1.70911088	     -3.51397812	    -10.66577159	      0.00000000	     31.01345424	     10.29948471	     -2.96215103	     46.27816126	      0.80770629	     20.48571888	     -7.44295909	      0.00000000
      7.50666667	     -8.47591494	      5.25845892	      6.86301279	      2.32967846	      0.90489347	      0.97224802	     12.27029070	     -5.29729068	     -3.92162656	    100.50400824	      1.75412586	     -2.71385429	    -10.72437027	      0.00000000	     30.09507088	      9.92274538	     -2.52078418	     47.59058577	      0.83061241	     22.38454711	     -7.57357617	      0.00000000
      7.51333333	     -8.42737540	      4.97724449	      6.53949818	      2.32752047	      0.90293330	      0.97251347	     14.90217224	     -5.36175592	     -3.28241287	    102.68452740	      1.79218309	     -2.01889917	    -10.73043726	      0.00000000	     28.99957763	      9.41471456	     -2.34566993	     48.57032777	      0.84771214	     24.05078983	     -7.22703273	      0.00000000
      7.52000000	     -8.13116628	      4.77426791	      6.25199523	      2.32561198	      0.90187906	      0.97281235	     17.20488384	     -5.42767304	     -2.69012554	    104.41720502	      1.82242402	     -1.34715984	    -10.87768353	      0.00000000	     27.39160205	      8.94270979	     -2.23082548	     49.09939985	      0.85694619	     25.11910128	     -7.21843779	      0.00000000
      7.52666667	     -8.36668173	      4.41782943	      5.98581803	      2.32372956	      0.90051009	      0.97303566	     20.15529014	     -5.42840847	     -2.19426473	    105.86967635	      1.84777443	     -0.81872569	    -10.58417807	      0.00000000	     26.35830026	      8.17029018	     -2.59608254	     49.66714813	      0.86685526	     26.58645403	     -5.64702315	      0.00000000
      7.53333333	     -8.37170275	      4.21665092	      5.78340226	      2.32213233	      0.90007491	      0.97318301	     22.73640001	     -5.53611595	     -1.73338628	    106.86304659	      1.86511201	     -0.30683292	    -10.34081101	      0.00000000	     24.79603146	      7.68740213	     -2.66536239	     49.67365388	      0.86696881	     27.10803535	     -5.47847810	      0.00000000
      7.54000000	     -8.40471932	      3.97143086	      5.66854016	      2.32079336	      0.90011654	      0.97319512	     25.25471602	     -5.60692534	     -1.41701966	    107.43738918	      1.87513618	      0.09643357	    -10.05014988	      0.00000000	     23.14923715	      7.16744865	     -2.75147254	     49.46575806	      0.86334035	     27.43481917	     -5.14810598	      0.00000000
      7.54666667	     -8.57055934	      3.71694941	      5.59117548	      2.31967230	      0.90045175	      0.97313229	     27.84308215	     -5.66301596	     -1.16371536	    107.65025945	      1.87885147	      0.45834446	     -9.47762481	      0.00000000	     21.55804230	      6.61212595	     -2.97380014	     49.08062100	      0.85661844	     27.66246147	     -4.36174153	      0.00000000
      7.55333333	     -8.62933686	      3.39254381	      5.59418562	      2.31892451	      0.90142807	      0.97293883	     30.14503552	     -5.63880045	     -1.07807314	    107.41066493	      1.87466975	      0.70388156	     -8.97461988	      0.00000000	     19.74965493	      5.99258695	     -3.13977207	     48.48967830	      0.84630454	     27.76139835	     -3.45358781	      0.00000000
      7.56000000	     -8.79738750	      2.98069439	      5.77874575	      2.31839244	      0.90281931	      0.97250472	     32.38994212	     -5.61501654	     -1.25412583	    106.74258795	      1.86300961	      0.79551028	     -8.78825070	      0.00000000	     17.99965087	      5.41797543	     -2.96115678	     47.71564881	      0.83279518	     27.71303152	     -3.21528025	      0.00000000
      7.56666667	     -8.67205126	      2.57043610	      5.67828201	      2.31836886	      0.90495175	      0.97238178	     34.19779542	     -5.34547106	     -1.22513101	    105.72556738	      1.84525925	      0.91478779	     -8.04546363	      0.00000000	     15.80940991	      4.57878122	     -3.42492773	     46.71446305	      0.81532119	     27.56860348	     -1.53449755	      0.00000000
      7.57333333	     -8.74787275	      2.10315873	      5.68179849	      2.31859647	      0.90732448	      0.97206761	     36.04549144	     -5.08425304	     -1.37838776	    104.33490462	      1.82098761	      0.91044700	     -7.56800317	      0.00000000	     13.78181045	      3.84804895	     -3.54045856	     45.49525759	      0.79404204	     27.02977963	     -0.86217945	      0.00000000
      7.58000000	     -8.78354662	      1.58869800	      5.63143530	      2.31916889	      0.91016489	      0.97178015	     37.66445827	     -4.70765577	     -1.56502564	    102.58246815	      1.79040182	      0.88966590	     -7.14819393	      0.00000000	     11.64394339	      3.06689733	     -3.70294579	     44.07732663	      0.76929448	     26.26473315	     -0.09528065	      0.00000000
      7.58666667	     -8.78356479	      1.03424325	      5.49287429	      2.32012484	      0.91341305	      0.97161368	     39.05546467	     -4.20170511	     -1.76841699	    100.48838618	      1.75385320	      0.85926013	     -6.81455946	      0.00000000	      9.39700531	      2.21236208	     -4.02887171	     42.44719126	      0.74084325	     25.16091219	      0.74604769	      0.00000000
      7.59333333	     -8.87708517	      0.45576176	      5.22477414	      2.32136646	      0.91681825	      0.97160250	     40.38436675	     -3.56493700	     -1.92546451	     98.10011917	      1.71217008	      0.80368740	     -6.55205297	      0.00000000	      7.19409958	      1.40502042	     -4.36069071	     40.62796941	      0.70909183	     23.75224133	      1.41814375	      0.00000000
      7.60000000	     -8.66332759	     -0.15470402	      4.82082523	      2.32314115	      0.92085187	      0.97179332	     41.13165029	     -2.75760287	     -2.09263045	     95.34591880	      1.66410021	      0.80656111	     -6.55296175	      0.00000000	      4.53584169	      0.49663920	     -5.01167042	     38.51428982	      0.67220117	     21.72117878	      2.04785176	      0.00000000
      7.60666667	     -8.70770842	     -0.74697353	      4.33061206	      2.32508534	      0.92470582	      0.97208156	     41.99642952	     -1.92190034	     -2.20994419	     92.35322190	      1.61186780	      0.75592811	     -6.59278590	      0.00000000	      2.15918339	     -0.28794318	     -5.69510336	     36.32167470	      0.63393281	     19.36959268	      2.55517249	      0.00000000
      7.61333333	     -8.69268138	     -1.35600716	      3.73493071	      2.32730644	      0.92871410	      0.97258316	     42.59305026	     -0.94844687	     -2.28283764	     89.06618091	      1.55449811	      0.76476615	     -6.84153864	      0.00000000	     -0.33131977	     -1.00181077	     -6.39106915	     33.96407398	      0.59278492	     16.70389465	      2.77178739	      0.00000000
      7.62000000	     -8.96801805	     -1.89177179	      3.07358018	      2.32956624	      0.93233415	      0.97320410	     43.34349919	     -0.01919037	     -2.30053939	     85.57205261	      1.49351407	      0.75652877	     -7.06315761	      0.00000000	     -2.42307143	     -1.59013775	     -7.25182541	     31.69682214	      0.55321391	     13.66384556	      3.21968802	      0.00000000
      7.62666667	     -9.03395283	     -2.39404957	      2.35574429	      2.33208181	      0.93622042	      0.97389641	     43.63495682	      0.94643484	     -2.28022205	     81.78832474	      1.42747556	      0.79464804	     -7.59384014	      0.00000000	     -4.83482465	     -1.86983605	     -7.45149198	     29.11767645	      0.50819932	      9.93873663	      2.00759290	      0.00000000
      7.63333333	     -9.34486392	     -2.85344842	      1.56939725	      2.33458256	      0.93955098	      0.97481191	     44.03483004	      1.92690280	     -2.19740155	     77.80518018	      1.35795657	      0.88441669	     -8.12722984	      0.00000000	     -6.74354822	     -2.29092955	     -8.48799008	     27.02750847	      0.47171901	      6.59248173	      2.42529034	      0.00000000
      7.64000000	     -9.71530997	     -3.19974321	      0.84478620	      2.33704316	      0.94269426	      0.97566685	     44.30307016	      2.75946024	     -2.10389062	     73.58398543	      1.28428282	      0.91890734	     -8.73049725	      0.00000000	     -8.50905145	     -2.39240430	     -8.81273784	     24.93288863	      0.43516100	      2.64639578	      1.62131297	      0.00000000
      7.64666667	    -10.15938657	     -3.45523527	      0.11801994	      2.33946145	      0.94549756	      0.97657617	     44.47516556	      3.51585832	     -1.95899454	     69.15606370	      1.20700101	      0.98257312	     -9.31500355	      0.00000000	     -9.96863975	     -2.45918251	     -9.35292852	     23.24100831	      0.40563212	     -1.09592638	      1.34975615	      0.00000000
      7.65333333	    -10.63113246	     -3.58315102	     -0.56835006	      2.34178259	      0.94798020	      0.97747983	     44.50546720	      4.11747781	     -1.80088757	     64.53434482	      1.12633680	      1.02246910	     -9.84479592	      0.00000000	    -11.20168097	     -2.39006971	     -9.75353029	     21.84743881	      0.38130974	     -4.88157487	      0.92961000	      0.00000000
      7.66000000	    -11.15714792	     -3.56849429	     -1.18678603	      2.34390318	      0.95010040	      0.97835449	     44.44374768	      4.55074432	     -1.61691676	     59.74839890	      1.04280628	      1.00252419	    -10.09745140	      0.00000000	    -12.13265667	     -2.14725632	     -9.76373896	     20.82936542	      0.36354101	     -8.60262908	      0.29599615	      0.00000000
